<?xml version="1.0" encoding="utf-8"?>
<svg version="1.1" xmlns="http://www.w3.org/2000/svg" xmlns:xlink="http://www.w3.org/1999/xlink" height="64.00000000000009" width="64.00000000000028">
  <defs>
    <rect id="rect-1" opacity="1" x="0" y="0" width="64" height="64"/>
    <mask id="mask-2" maskUnits="userSpaceOnUse" maskContentUnits="userSpaceOnUse">
      <rect opacity="1" x="0" y="0" width="64.00000000000028" height="64.00000000000009" fill="Black"/>
      <use xlink:href="#rect-1" fill="White"/>
    </mask>
  </defs>
  <g opacity="1">
    <g/>
    <g mask="url(#mask-2)">
      <g opacity="1">
        <g opacity="1">
          <ellipse fill="rgb(82,124,206)" fill-opacity="1" opacity="1" rx="31.99950000000001" ry="31.999499999999994" cx="31.99950000000001" cy="31.999499999999994"/>
        </g>
        <g opacity="1">
          <path fill="rgb(82,106,206)" fill-opacity="1" opacity="1" fill-rule="evenodd" d="M64.00000000000028 31.99987499999999C64.00000000000028 29.677124999999982 63.75025000000028 27.412999999999975 63.28025000000028 25.23074999999997L51.024625000000235 12.975124999999933C49.24737500000023 11.197874999999927 46.33912500000022 11.197874999999927 44.56187500000022 12.975124999999933L38.0331250000002 19.50387499999995L15.291375000000127 11.102374999999927L11.700750000000117 14.693124999999938L27.399375000000166 30.13824999999998L20.645750000000145 36.891875L12.48525000000012 34.16624999999999L6.1556250000001 40.49562500000001L29.568750000000172 63.90875000000008C30.371375000000175 63.969125000000076 31.182000000000176 64.00000000000009 32.00012500000018 64.00000000000009C49.67312500000023 64.00000000000009 64.00000000000028 49.67312500000004 64.00000000000028 31.99987499999999L64.00000000000028 31.99987499999999Z"/>
        </g>
        <g opacity="1">
          <path fill="rgb(255,255,255)" fill-opacity="1" opacity="1" fill-rule="evenodd" d="M49.30699999999985 52.29924999999995L52.89762499999984 48.70862499999994L44.496124999999886 25.966624999999908L51.024749999999855 19.4381249999999C52.80199999999984 17.660749999999897 52.80199999999984 14.752624999999892 51.024749999999855 12.97537499999989C49.24749999999986 11.198124999999887 46.33924999999988 11.198124999999887 44.561999999999884 12.97537499999989L38.03337499999992 19.5038749999999L15.291375000000029 11.102374999999888L11.700750000000046 14.692999999999895L30.12749999999995 27.40974999999991L20.645625 36.89162499999992L12.48525000000004 34.165999999999926L6.155750000000069 40.495499999999936L18.84425000000001 45.15562499999994L23.504374999999985 57.844124999999956L29.833874999999953 51.514624999999945L27.108249999999966 43.35424999999993L36.59012499999992 33.87237499999991L49.30699999999985 52.29924999999994L49.30699999999985 52.29924999999995Z"/>
        </g>
        <g opacity="1">
          <path fill="rgb(225,225,227)" fill-opacity="1" opacity="1" fill-rule="evenodd" d="M36.59025000000018 33.8725L49.3070000000002 52.29924999999997L52.89762500000021 48.70862499999998L44.4961250000002 25.96662500000001L51.0247500000002 19.43812500000002C52.80200000000021 17.66075000000002 52.80200000000021 14.752625000000025 51.0247500000002 12.975375000000028L18.84425000000016 45.15574999999998L23.504375000000167 57.84424999999997L29.833875000000177 51.514749999999964L27.10825000000017 43.354374999999976L36.59025000000018 33.87249999999999L36.59025000000018 33.8725Z"/>
        </g>
      </g>
    </g>
  </g>
</svg>