<?xml version="1.0" encoding="utf-8"?>
<svg version="1.1" xmlns="http://www.w3.org/2000/svg" xmlns:xlink="http://www.w3.org/1999/xlink" height="41" width="41">
  <defs>
    <rect id="rect-1" opacity="1" x="0" y="0" width="41" height="41"/>
    <mask id="mask-2" maskUnits="userSpaceOnUse" maskContentUnits="userSpaceOnUse">
      <rect opacity="1" x="0" y="0" width="41" height="41" fill="Black"/>
      <use xlink:href="#rect-1" fill="White"/>
    </mask>
  </defs>
  <g opacity="1">
    <g/>
    <g mask="url(#mask-2)">
      <g opacity="1">
        <g opacity="1">
          <path fill="rgb(255,255,255)" fill-opacity="1" opacity="1" fill-rule="evenodd" d="M25.553466796875 27.396881103515625C23.074462890625 29.49456787109375 19.8961181640625 30.734100341796875 16.4000244140625 30.734100341796875C8.517822265625 30.734100341796875 2.06591796875 24.31396484375 2.06591796875 16.399993896484375C2.06591796875 8.517822265625 8.517822265625 2.065887451171875 16.4000244140625 2.065887451171875C24.31396484375 2.065887451171875 30.734130859375 8.486053466796875 30.734130859375 16.399993896484375C30.734130859375 19.864349365234375 29.4627685546875 23.07440185546875 27.39697265625 25.553497314453125L38.52099609375 36.677520751953125C39.029541015625 37.18603515625 39.029541015625 38.01239013671875 38.52099609375 38.52093505859375C38.2667236328125 38.775177001953125 37.9488525390625 38.902313232421875 37.5992431640625 38.902313232421875C37.2496337890625 38.902313232421875 36.9317626953125 38.775177001953125 36.677490234375 38.52093505859375L25.553466796875 27.396881103515625ZM28.1279296875 16.399993896484375C28.1279296875 9.94805908203125 22.8837890625 4.672088623046875 16.4000244140625 4.672088623046875C9.9481201171875 4.672088623046875 4.672119140625 9.94805908203125 4.672119140625 16.399993896484375C4.672119140625 22.8519287109375 9.916259765625 28.127899169921875 16.4000244140625 28.127899169921875C22.8837890625 28.127899169921875 28.1279296875 22.88372802734375 28.1279296875 16.399993896484375Z"/>
        </g>
      </g>
    </g>
  </g>
</svg>